<?xml version="1.0" encoding="UTF-8"?>
<!DOCTYPE svg PUBLIC "-//W3C//DTD SVG 1.0//EN" "http://www.w3.org/TR/2001/REC-SVG-20010904/DTD/svg10.dtd">
<!-- Creator: CorelDRAW -->
<svg xmlns="http://www.w3.org/2000/svg" xml:space="preserve" width="1300px" height="1300px" version="1.0" style="shape-rendering:geometricPrecision; text-rendering:geometricPrecision; image-rendering:optimizeQuality; fill-rule:evenodd; clip-rule:evenodd"
viewBox="0 0 1300 1056"
 xmlns:xlink="http://www.w3.org/1999/xlink">
 <defs>
  <style type="text/css">
   <![CDATA[
    .fil0 {fill:#FFFF66;fill-opacity:0.501961}
   ]]>
  </style>
 </defs>
 <g id="_200:master" visibility="hidden">
  <metadata id="CorelCorpID_0Corel-Layer"/>
  <path class="fil0" d="M678 36c28,37 36,92 36,157 0,92 -11,189 -11,280 0,61 12,95 73,95l96 0 -22 82 -80 0c-93,0 -119,-73 -119,-166 0,-78 9,-162 9,-240 0,-63 -8,-108 -35,-147l53 -61z"/>
 </g>
 <g id="_100:master">
  <metadata id="CorelCorpID_1Corel-Layer"/>
  <path class="fil0" d="M685 0c28,37 36,92 36,157 0,92 -11,225 -11,316 0,61 13,96 73,96l29 0 0 81 -35 0c-92,0 -127,-73 -127,-166 0,-78 9,-199 9,-277 0,-63 -2,-116 -29,-155l55 -52z"/>
 </g>
</svg>
