<?xml version="1.0" encoding="UTF-8"?>
<!DOCTYPE svg PUBLIC "-//W3C//DTD SVG 1.0//EN" "http://www.w3.org/TR/2001/REC-SVG-20010904/DTD/svg10.dtd">
<!-- Creator: CorelDRAW -->
<svg xmlns="http://www.w3.org/2000/svg" xml:space="preserve" width="1300px" height="1300px" version="1.0" style="shape-rendering:geometricPrecision; text-rendering:geometricPrecision; image-rendering:optimizeQuality; fill-rule:evenodd; clip-rule:evenodd"
viewBox="0 0 1300 1056"
 xmlns:xlink="http://www.w3.org/1999/xlink">
 <defs>
  <style type="text/css">
   <![CDATA[
    .fil0 {fill:#FFFF66;fill-opacity:0.501961}
   ]]>
  </style>
 </defs>
 <g id="_100:master">
  <metadata id="CorelCorpID_0Corel-Layer"/>
  <path class="fil0" d="M373 479c0,73 70,89 142,89l243 0c81,0 142,-12 173,-62 -8,-35 -12,-87 -19,-123l55 -48c11,68 4,150 39,193 19,25 50,41 95,41l20 0 0 81 -26 0c-80,0 -123,-27 -146,-84 -36,57 -101,84 -191,84l-245 0c-102,0 -189,-27 -189,-128 0,-54 17,-95 32,-136l16 -45c14,4 22,11 22,27 0,30 -21,64 -21,111z"/>
 </g>
</svg>
