<?xml version="1.0" encoding="UTF-8"?>
<!DOCTYPE svg PUBLIC "-//W3C//DTD SVG 1.0//EN" "http://www.w3.org/TR/2001/REC-SVG-20010904/DTD/svg10.dtd">
<!-- Creator: CorelDRAW -->
<svg xmlns="http://www.w3.org/2000/svg" xml:space="preserve" width="1300px" height="1300px" version="1.0" style="shape-rendering:geometricPrecision; text-rendering:geometricPrecision; image-rendering:optimizeQuality; fill-rule:evenodd; clip-rule:evenodd"
viewBox="0 0 1300 1056"
 xmlns:xlink="http://www.w3.org/1999/xlink">
 <defs>
  <style type="text/css">
   <![CDATA[
    .fil0 {fill:#FFFF66;fill-opacity:0.501961}
   ]]>
  </style>
 </defs>
 <g id="_100:master">
  <metadata id="CorelCorpID_0Corel-Layer"/>
  <path class="fil0" d="M670 460c-30,-14 -55,-32 -55,-74 0,-45 20,-82 36,-112 19,-35 46,-66 85,-81 13,-5 26,-6 39,-6 37,0 66,20 89,35l-6 60c-24,-12 -57,-21 -90,-21 -50,0 -84,22 -96,57 -20,61 27,84 87,84 56,0 91,-19 137,-31l-11 71c-127,30 -240,75 -270,203 0,50 32,85 66,104 31,19 73,27 125,27 73,0 140,-16 203,-30 -17,24 -27,48 -46,78 -58,18 -114,30 -179,30 -124,0 -209,-56 -209,-180 0,-94 44,-166 95,-214l0 0z"/>
 </g>
</svg>
