<?xml version="1.0" encoding="UTF-8"?>
<!DOCTYPE svg PUBLIC "-//W3C//DTD SVG 1.0//EN" "http://www.w3.org/TR/2001/REC-SVG-20010904/DTD/svg10.dtd">
<!-- Creator: CorelDRAW -->
<svg xmlns="http://www.w3.org/2000/svg" xml:space="preserve" width="1300px" height="1300px" version="1.0" style="shape-rendering:geometricPrecision; text-rendering:geometricPrecision; image-rendering:optimizeQuality; fill-rule:evenodd; clip-rule:evenodd"
viewBox="0 0 1300 1056"
 xmlns:xlink="http://www.w3.org/1999/xlink">
 <defs>
  <style type="text/css">
   <![CDATA[
    .fil0 {fill:#999933;fill-opacity:0.501961}
   ]]>
  </style>
 </defs>
 <g id="_100:master">
  <metadata id="CorelCorpID_0Corel-Layer"/>
  <path class="fil0" d="M846 388c0,48 -41,107 -102,158 23,17 51,23 108,23l58 0 0 81 -49 0c-86,0 -135,-19 -176,-63 -60,37 -131,63 -198,63l-31 0 0 0 -15 0c-21,0 -41,-20 -41,-41 0,-21 20,-40 41,-40l15 0 0 0 20 0c57,0 112,-16 159,-39 -33,-48 -76,-94 -141,-109l18 -90c83,-37 334,-76 334,57zm-148 108c53,-36 88,-73 88,-85 0,-39 -90,-43 -129,-43 -28,0 -63,3 -83,10 45,27 83,65 114,105 3,5 7,9 10,13z"/>
 </g>
</svg>
