<?xml version="1.0" encoding="UTF-8"?>
<!DOCTYPE svg PUBLIC "-//W3C//DTD SVG 1.0//EN" "http://www.w3.org/TR/2001/REC-SVG-20010904/DTD/svg10.dtd">
<!-- Creator: CorelDRAW -->
<svg xmlns="http://www.w3.org/2000/svg" xml:space="preserve" width="1300px" height="1300px" version="1.0" style="shape-rendering:geometricPrecision; text-rendering:geometricPrecision; image-rendering:optimizeQuality; fill-rule:evenodd; clip-rule:evenodd"
viewBox="0 0 1300 1056"
 xmlns:xlink="http://www.w3.org/1999/xlink">
 <defs>
  <style type="text/css">
   <![CDATA[
    .fil0 {fill:#996633;fill-opacity:0.501961}
   ]]>
  </style>
 </defs>
 <g id="_100:master">
  <metadata id="CorelCorpID_0Corel-Layer"/>
  <path class="fil0" d="M720 512c-49,38 -90,84 -104,155 0,74 46,116 105,137 28,10 65,14 109,14 77,0 147,-17 217,-32l-43 84c-63,17 -136,31 -207,31 -134,0 -223,-56 -223,-184 0,-56 14,-101 32,-142 20,-45 51,-85 87,-116 -29,-52 -76,-99 -151,-105l21 -92c50,-22 108,-43 176,-43 56,0 104,16 129,48 10,12 14,26 14,44 0,60 -36,97 -69,127 -14,13 -28,24 -44,36 27,71 49,94 145,94l166 0 -21 81 -161 0c-115,0 -145,-54 -178,-137l0 0zm-105 -209c41,19 72,44 99,79 8,13 16,27 24,43 23,-19 54,-39 71,-65 6,-8 9,-17 9,-25 0,-39 -54,-46 -92,-46 -39,0 -86,5 -111,14l0 0z"/>
 </g>
</svg>
