<?xml version="1.0" encoding="UTF-8"?>
<!DOCTYPE svg PUBLIC "-//W3C//DTD SVG 1.0//EN" "http://www.w3.org/TR/2001/REC-SVG-20010904/DTD/svg10.dtd">
<!-- Creator: CorelDRAW -->
<svg xmlns="http://www.w3.org/2000/svg" xml:space="preserve" width="1300px" height="1300px" version="1.0" style="shape-rendering:geometricPrecision; text-rendering:geometricPrecision; image-rendering:optimizeQuality; fill-rule:evenodd; clip-rule:evenodd"
viewBox="0 0 1300 1056"
 xmlns:xlink="http://www.w3.org/1999/xlink">
 <defs>
  <style type="text/css">
   <![CDATA[
    .fil0 {fill:#FFFF66;fill-opacity:0.501961}
   ]]>
  </style>
 </defs>
 <g id="_100:master">
  <metadata id="CorelCorpID_0Corel-Layer"/>
  <path class="fil0" d="M520 569c71,0 130,-9 180,-36 -37,-20 -62,-34 -62,-80 0,-46 21,-84 38,-115 19,-37 48,-70 89,-85 12,-5 26,-7 40,-7 38,0 69,22 92,38l-6 61c-26,-12 -57,-22 -93,-22 -39,0 -66,13 -83,32 -13,15 -23,33 -23,54 0,48 48,61 95,61 45,0 83,-14 123,-25 13,-4 27,-8 41,-10l-14 82c-93,9 -160,42 -222,81 -74,46 -144,52 -194,52l0 0 -16 0c-21,0 -41,-20 -41,-41 0,-21 20,-40 41,-40l15 0z"/>
 </g>
</svg>
