<?xml version="1.0" encoding="UTF-8"?>
<!DOCTYPE svg PUBLIC "-//W3C//DTD SVG 1.0//EN" "http://www.w3.org/TR/2001/REC-SVG-20010904/DTD/svg10.dtd">
<!-- Creator: CorelDRAW -->
<svg xmlns="http://www.w3.org/2000/svg" xml:space="preserve" width="1300px" height="1300px" version="1.0" style="shape-rendering:geometricPrecision; text-rendering:geometricPrecision; image-rendering:optimizeQuality; fill-rule:evenodd; clip-rule:evenodd"
viewBox="0 0 1300 1056"
 xmlns:xlink="http://www.w3.org/1999/xlink">
 <defs>
  <style type="text/css">
   <![CDATA[
    .fil0 {fill:#FFFF66;fill-opacity:0.501961}
   ]]>
  </style>
 </defs>
 <g id="_100:master">
  <metadata id="CorelCorpID_0Corel-Layer"/>
  <path class="fil0" d="M976 429c0,135 -66,221 -202,221l-97 0 -16 0c-20,0 -41,-20 -41,-41 0,-21 21,-40 41,-40 36,0 72,0 108,0 59,0 105,-10 142,-33l5 -31 -109 0c-59,0 -84,-45 -84,-104 0,-65 26,-122 58,-158 15,-17 34,-33 63,-33 70,0 101,68 117,122 9,29 15,63 15,97zm-211 -55c0,29 14,50 45,50l106 0c0,-55 -25,-105 -61,-126 -9,-5 -19,-6 -30,-6 -38,0 -60,45 -60,82l0 0z"/>
 </g>
</svg>
