<?xml version="1.0" encoding="UTF-8"?>
<!DOCTYPE svg PUBLIC "-//W3C//DTD SVG 1.0//EN" "http://www.w3.org/TR/2001/REC-SVG-20010904/DTD/svg10.dtd">
<!-- Creator: CorelDRAW -->
<svg xmlns="http://www.w3.org/2000/svg" xml:space="preserve" width="1300px" height="1300px" version="1.0" style="shape-rendering:geometricPrecision; text-rendering:geometricPrecision; image-rendering:optimizeQuality; fill-rule:evenodd; clip-rule:evenodd"
viewBox="0 0 1300 1056"
 xmlns:xlink="http://www.w3.org/1999/xlink">
 <defs>
  <style type="text/css">
   <![CDATA[
    .fil0 {fill:#FFFF66;fill-opacity:0.501961}
   ]]>
  </style>
 </defs>
 <g id="_100:master">
  <metadata id="CorelCorpID_0Corel-Layer"/>
  <path class="fil0" d="M994 426c0,-31 -16,-59 -47,-59 -37,0 -67,28 -82,50 -6,10 -9,19 -9,28 0,20 16,36 28,45 14,12 33,23 47,31 27,-20 64,-57 63,-95zm135 143l0 81 -40 0c-65,0 -115,-21 -160,-45 -42,27 -103,45 -171,45l-248 0c-101,0 -187,-26 -187,-127 0,-33 7,-63 16,-90 9,-29 21,-59 31,-88 14,4 22,11 22,27 0,29 -20,64 -20,109l0 0c0,72 69,88 140,88l260 0c28,0 60,-5 83,-11 -81,-51 -44,-148 5,-207 23,-27 61,-64 106,-64 55,0 82,48 82,103 0,66 -27,121 -55,161 41,15 88,17 136,18z"/>
 </g>
</svg>
