<?xml version="1.0" encoding="UTF-8"?>
<!DOCTYPE svg PUBLIC "-//W3C//DTD SVG 1.0//EN" "http://www.w3.org/TR/2001/REC-SVG-20010904/DTD/svg10.dtd">
<!-- Creator: CorelDRAW -->
<svg xmlns="http://www.w3.org/2000/svg" xml:space="preserve" width="1300px" height="1300px" version="1.0" style="shape-rendering:geometricPrecision; text-rendering:geometricPrecision; image-rendering:optimizeQuality; fill-rule:evenodd; clip-rule:evenodd"
viewBox="0 0 1300 1056"
 xmlns:xlink="http://www.w3.org/1999/xlink">
 <defs>
  <style type="text/css">
   <![CDATA[
    .fil0 {fill:#FFFF66;fill-opacity:0.501961}
   ]]>
  </style>
 </defs>
 <g id="_100:master">
  <metadata id="CorelCorpID_0Corel-Layer"/>
  <path class="fil0" d="M554 650c-20,0 -41,-20 -40,-41 0,-21 20,-40 40,-40l16 0 31 0c34,0 77,-1 109,-11 -27,-17 -49,-41 -49,-83 0,-32 13,-61 26,-84 21,-40 56,-77 97,-96 13,-5 24,-8 35,-8 56,0 84,49 84,104 0,49 -17,91 -35,123 -6,14 -13,27 -22,38 48,17 106,17 161,17l0 81 -64 0c-65,0 -114,-21 -159,-44 -42,27 -105,44 -172,44 -19,0 -38,0 -58,0zm295 -223l0 0c0,9 -3,17 -6,26 -12,29 -35,50 -57,68 -15,-8 -33,-20 -47,-31 -25,-20 -39,-41 -19,-72 15,-23 44,-51 82,-51 32,0 47,29 47,60z"/>
 </g>
</svg>
