<?xml version="1.0" encoding="UTF-8"?>
<!DOCTYPE svg PUBLIC "-//W3C//DTD SVG 1.0//EN" "http://www.w3.org/TR/2001/REC-SVG-20010904/DTD/svg10.dtd">
<!-- Creator: CorelDRAW -->
<svg xmlns="http://www.w3.org/2000/svg" xml:space="preserve" width="1300px" height="1300px" version="1.0" style="shape-rendering:geometricPrecision; text-rendering:geometricPrecision; image-rendering:optimizeQuality; fill-rule:evenodd; clip-rule:evenodd"
viewBox="0 0 1300 1056"
 xmlns:xlink="http://www.w3.org/1999/xlink">
 <defs>
  <style type="text/css">
   <![CDATA[
    .fil0 {fill:#FFFF66;fill-opacity:0.501961}
   ]]>
  </style>
 </defs>
 <g id="_100:master">
  <metadata id="CorelCorpID_0Corel-Layer"/>
  <path class="fil0" d="M323 523c0,-15 2,-30 5,-46 10,-47 27,-89 43,-132 14,5 22,10 22,27 0,6 -1,13 -4,22 -7,26 -17,56 -17,88 0,72 68,87 141,87l257 0c59,0 104,-10 141,-33l4 -32 -107 0c-59,0 -86,-44 -86,-103 0,-66 27,-122 60,-158 14,-17 33,-33 61,-33 15,0 28,3 41,10 59,34 91,117 91,209 0,135 -65,221 -201,221l-264 0c-101,0 -187,-26 -187,-127zm486 -99l108 0c0,-7 -1,-13 -3,-23 -8,-48 -32,-109 -89,-109 -9,0 -17,2 -24,7 -19,15 -36,42 -36,75 0,29 15,50 44,50l0 0z"/>
 </g>
</svg>
