<?xml version="1.0" encoding="UTF-8"?>
<!DOCTYPE svg PUBLIC "-//W3C//DTD SVG 1.0//EN" "http://www.w3.org/TR/2001/REC-SVG-20010904/DTD/svg10.dtd">
<!-- Creator: CorelDRAW -->
<svg xmlns="http://www.w3.org/2000/svg" xml:space="preserve" width="1300px" height="1300px" version="1.0" style="shape-rendering:geometricPrecision; text-rendering:geometricPrecision; image-rendering:optimizeQuality; fill-rule:evenodd; clip-rule:evenodd"
viewBox="0 0 1300 1056"
 xmlns:xlink="http://www.w3.org/1999/xlink">
 <defs>
  <style type="text/css">
   <![CDATA[
    .fil0 {fill:#FFFF66;fill-opacity:0.501961}
   ]]>
  </style>
 </defs>
 <g id="_100:master">
  <metadata id="CorelCorpID_0Corel-Layer"/>
  <path class="fil0" d="M980 0l-9 52 -57 21c-59,22 -117,45 -166,78 5,-38 12,-60 39,-75 58,-29 127,-56 193,-76l0 0zm-477 345c15,5 22,10 22,27 0,16 -6,33 -11,48 -5,18 -10,40 -10,61 0,73 69,88 141,88l145 0c72,0 123,-18 143,-72 -37,-98 -123,-159 -207,-208 3,-15 13,-35 20,-50 17,-36 36,-65 68,-86 21,-14 47,-24 72,-35 54,-22 108,-42 165,-60l-14 74c-23,8 -47,16 -70,25 -66,23 -131,52 -185,88 68,43 136,98 174,171 13,24 19,49 19,76 0,107 -75,158 -184,158l-149 0c-100,0 -186,-26 -186,-127 0,-52 17,-94 31,-133l16 -45z"/>
 </g>
</svg>
