<?xml version="1.0" encoding="UTF-8"?>
<!DOCTYPE svg PUBLIC "-//W3C//DTD SVG 1.0//EN" "http://www.w3.org/TR/2001/REC-SVG-20010904/DTD/svg10.dtd">
<!-- Creator: CorelDRAW -->
<svg xmlns="http://www.w3.org/2000/svg" xml:space="preserve" width="1300px" height="1300px" version="1.0" style="shape-rendering:geometricPrecision; text-rendering:geometricPrecision; image-rendering:optimizeQuality; fill-rule:evenodd; clip-rule:evenodd"
viewBox="0 0 1300 1056"
 xmlns:xlink="http://www.w3.org/1999/xlink">
 <defs>
  <style type="text/css">
   <![CDATA[
    .fil0 {fill:#FFFF66;fill-opacity:0.501961}
   ]]>
  </style>
 </defs>
 <g id="_100:master">
  <metadata id="CorelCorpID_0Corel-Layer"/>
  <path class="fil0" d="M914 -25l-9 54 -59 22c-62,23 -122,47 -172,81 5,-39 11,-62 39,-77 61,-31 133,-59 201,-80l0 0zm120 675c-110,0 -160,-49 -202,-119 -19,81 -75,119 -178,119l-143 0c-100,0 -186,-27 -186,-127 0,-53 17,-94 32,-134l16 -44c14,5 21,10 21,27 0,16 -6,33 -10,48 -5,18 -11,40 -11,61 0,72 69,88 141,88l145 0c78,0 129,-21 146,-83 -51,-82 -121,-148 -210,-197 3,-15 13,-36 20,-50 17,-36 37,-66 69,-86 21,-15 46,-25 71,-36 77,-33 154,-56 239,-81l-14 71c-115,39 -237,75 -329,138 71,45 123,92 171,159 47,65 80,165 194,165l57 0 -1 81 -38 0z"/>
 </g>
</svg>
