<?xml version="1.0" encoding="UTF-8"?>
<!DOCTYPE svg PUBLIC "-//W3C//DTD SVG 1.0//EN" "http://www.w3.org/TR/2001/REC-SVG-20010904/DTD/svg10.dtd">
<!-- Creator: CorelDRAW -->
<svg xmlns="http://www.w3.org/2000/svg" xml:space="preserve" width="1300px" height="1300px" version="1.0" style="shape-rendering:geometricPrecision; text-rendering:geometricPrecision; image-rendering:optimizeQuality; fill-rule:evenodd; clip-rule:evenodd"
viewBox="0 0 1300 1056"
 xmlns:xlink="http://www.w3.org/1999/xlink">
 <defs>
  <style type="text/css">
   <![CDATA[
    .fil0 {fill:#FFFF66;fill-opacity:0.501961}
   ]]>
  </style>
 </defs>
 <g id="_100:master">
  <metadata id="CorelCorpID_0Corel-Layer"/>
  <path class="fil0" d="M1073 -24l-9 55 -59 22c-62,22 -122,46 -173,81 5,-40 12,-63 40,-78 61,-31 133,-58 201,-80l0 0zm130 593l-1 81 -26 0c-111,0 -160,-49 -202,-119 -19,81 -75,119 -178,119l-112 0c-20,0 -41,-20 -40,-41 0,-21 20,-40 40,-40 39,0 78,0 117,0 78,0 130,-21 147,-83 -52,-82 -123,-148 -211,-197 6,-27 22,-55 34,-78 26,-51 73,-70 126,-94 77,-33 153,-56 238,-81l-13 71c-115,39 -237,75 -329,138 70,45 122,92 170,159 47,66 80,165 194,165l46 0z"/>
 </g>
</svg>
