<?xml version="1.0" encoding="UTF-8"?>
<!DOCTYPE svg PUBLIC "-//W3C//DTD SVG 1.0//EN" "http://www.w3.org/TR/2001/REC-SVG-20010904/DTD/svg10.dtd">
<!-- Creator: CorelDRAW -->
<svg xmlns="http://www.w3.org/2000/svg" xml:space="preserve" width="1300px" height="1300px" version="1.0" style="shape-rendering:geometricPrecision; text-rendering:geometricPrecision; image-rendering:optimizeQuality; fill-rule:evenodd; clip-rule:evenodd"
viewBox="0 0 1300 1056"
 xmlns:xlink="http://www.w3.org/1999/xlink">
 <defs>
  <style type="text/css">
   <![CDATA[
    .fil0 {fill:#CC6633;fill-opacity:0.501961}
   ]]>
  </style>
 </defs>
 <g id="_100:master">
  <metadata id="CorelCorpID_0Corel-Layer"/>
  <path class="fil0" d="M1033 -24l-9 54 -60 22c-61,23 -121,47 -172,81 5,-39 12,-62 40,-78 61,-30 132,-58 201,-79l0 0zm-334 593l2 0 90 0c71,0 123,-19 142,-72 -36,-98 -122,-159 -207,-208 7,-27 22,-55 35,-78 26,-51 73,-70 126,-94 53,-22 107,-41 165,-59l-15 74c-23,8 -46,16 -69,24 -67,24 -133,52 -186,89 69,42 137,98 175,170 12,25 18,50 18,77 0,107 -75,158 -184,158l-90 0 -16 0c-20,0 -41,-20 -40,-41 0,-21 20,-40 40,-40l14 0z"/>
 </g>
</svg>
