<?xml version="1.0" encoding="UTF-8"?>
<!DOCTYPE svg PUBLIC "-//W3C//DTD SVG 1.0//EN" "http://www.w3.org/TR/2001/REC-SVG-20010904/DTD/svg10.dtd">
<!-- Creator: CorelDRAW -->
<svg xmlns="http://www.w3.org/2000/svg" xml:space="preserve" width="1300px" height="1300px" version="1.0" style="shape-rendering:geometricPrecision; text-rendering:geometricPrecision; image-rendering:optimizeQuality; fill-rule:evenodd; clip-rule:evenodd"
viewBox="0 0 1300 1056"
 xmlns:xlink="http://www.w3.org/1999/xlink">
 <defs>
  <style type="text/css">
   <![CDATA[
    .fil0 {fill:#FFFF66;fill-opacity:0.501961}
   ]]>
  </style>
 </defs>
 <g id="_100:master">
  <metadata id="CorelCorpID_0Corel-Layer"/>
  <g id="_598687200">
   <g>
    <path class="fil0" d="M845 487c15,21 39,37 66,45l65 -28 -13 60c-66,20 -119,58 -168,96l-3 -48c19,-13 40,-29 58,-43l-15 -14c-14,-11 -29,-28 -29,-52 0,-39 34,-63 64,-74 11,-3 23,-6 33,-6 8,0 17,1 26,4l0 47c-10,-2 -16,-4 -27,-4 -23,0 -42,8 -57,18l0 -1z"/>
   </g>
  </g>
 </g>
</svg>
