<?xml version="1.0" encoding="UTF-8"?>
<!DOCTYPE svg PUBLIC "-//W3C//DTD SVG 1.0//EN" "http://www.w3.org/TR/2001/REC-SVG-20010904/DTD/svg10.dtd">
<!-- Creator: CorelDRAW -->
<svg xmlns="http://www.w3.org/2000/svg" xml:space="preserve" width="1300px" height="1300px" version="1.0" style="shape-rendering:geometricPrecision; text-rendering:geometricPrecision; image-rendering:optimizeQuality; fill-rule:evenodd; clip-rule:evenodd"
viewBox="0 0 1300 1056"
 xmlns:xlink="http://www.w3.org/1999/xlink">
 <defs>
  <style type="text/css">
   <![CDATA[
    .fil0 {fill:#FFFF66;fill-opacity:0.501961}
   ]]>
  </style>
 </defs>
 <g id="_100:master">
  <metadata id="CorelCorpID_0Corel-Layer"/>
  <path class="fil0" d="M764 328c-17,-9 -35,-21 -52,-30l41 -73c85,50 177,106 236,183 25,34 48,74 48,129 0,51 -17,96 -43,126 -6,7 -12,11 -21,11 -13,-1 -19,-5 -32,-10 -53,-21 -104,-41 -165,-66 -50,35 -104,52 -161,52l-94 0c-20,0 -41,-20 -41,-41 1,-21 21,-40 41,-40l96 0c33,0 58,-2 84,-10 -25,-18 -42,-36 -42,-75 0,-59 34,-101 66,-130 12,-11 26,-20 39,-26zm22 195c29,-16 55,-35 71,-64 0,-43 -17,-87 -61,-87 -37,0 -62,26 -74,50 -5,10 -7,20 -7,29 0,41 40,62 71,72zm128 -81c-19,42 -38,75 -69,105 47,19 88,35 134,52 5,-9 8,-20 8,-34 0,-44 -24,-75 -46,-99 -9,-9 -18,-18 -27,-24z"/>
 </g>
</svg>
