<?xml version="1.0" encoding="UTF-8"?>
<!DOCTYPE svg PUBLIC "-//W3C//DTD SVG 1.0//EN" "http://www.w3.org/TR/2001/REC-SVG-20010904/DTD/svg10.dtd">
<!-- Creator: CorelDRAW -->
<svg xmlns="http://www.w3.org/2000/svg" xml:space="preserve" width="1300px" height="1300px" version="1.0" style="shape-rendering:geometricPrecision; text-rendering:geometricPrecision; image-rendering:optimizeQuality; fill-rule:evenodd; clip-rule:evenodd"
viewBox="0 0 1300 1056"
 xmlns:xlink="http://www.w3.org/1999/xlink">
 <defs>
  <style type="text/css">
   <![CDATA[
    .fil0 {fill:#FFFF66;fill-opacity:0.501961}
   ]]>
  </style>
 </defs>
 <g id="_100:master">
  <metadata id="CorelCorpID_0Corel-Layer"/>
  <path class="fil0" d="M831 510c14,42 38,59 98,59l95 0 0 81 -102 0c-95,0 -123,-51 -137,-131 -22,7 -43,15 -63,24 -72,33 -138,75 -222,96 -29,7 -43,11 -76,11l-49 0c-21,0 -41,-20 -41,-41 0,-21 20,-40 41,-40l16 0 0 0 53 0c63,0 121,-23 171,-43 52,-22 109,-51 163,-70 -46,-24 -98,-56 -150,-75 -17,-6 -31,-8 -44,-8 -42,0 -56,32 -78,51 -7,7 -15,10 -25,10 -10,0 -16,-4 -25,-7 31,-41 60,-89 108,-113 14,-8 30,-12 48,-12 41,0 76,19 107,35 61,32 122,72 194,91 23,7 47,10 70,10l-52 75c-20,-3 -38,-6 -59,-6 -15,0 -28,1 -41,3z"/>
 </g>
</svg>
