<?xml version="1.0" encoding="UTF-8"?>
<!DOCTYPE svg PUBLIC "-//W3C//DTD SVG 1.0//EN" "http://www.w3.org/TR/2001/REC-SVG-20010904/DTD/svg10.dtd">
<!-- Creator: CorelDRAW -->
<svg xmlns="http://www.w3.org/2000/svg" xml:space="preserve" width="1300px" height="1300px" version="1.0" style="shape-rendering:geometricPrecision; text-rendering:geometricPrecision; image-rendering:optimizeQuality; fill-rule:evenodd; clip-rule:evenodd"
viewBox="0 0 1300 1056"
 xmlns:xlink="http://www.w3.org/1999/xlink">
 <defs>
  <style type="text/css">
   <![CDATA[
    .fil0 {fill:#996633;fill-opacity:0.501961}
   ]]>
  </style>
 </defs>
 <g id="_100:master">
  <metadata id="CorelCorpID_0Corel-Layer"/>
  <path class="fil0" d="M1073 569l0 81 -22 0c-89,0 -120,-46 -129,-127l-33 53c-66,-5 -145,-17 -180,-54 -9,-9 -12,-18 -12,-29 0,-31 17,-57 29,-77 38,-58 111,-87 184,-110 -8,-27 -18,-49 -31,-71l59 -60c28,52 38,123 38,203 0,40 -2,70 -2,110 0,49 30,81 78,81l21 0zm-151 -77c0,-36 0,-72 0,-107 -1,-6 -1,-11 -2,-16 -45,11 -85,27 -116,47 -13,8 -22,14 -28,21 -7,7 -9,12 -10,17 7,24 66,30 93,34 19,2 41,4 63,4z"/>
 </g>
</svg>
