<?xml version="1.0" encoding="UTF-8"?>
<!DOCTYPE svg PUBLIC "-//W3C//DTD SVG 1.0//EN" "http://www.w3.org/TR/2001/REC-SVG-20010904/DTD/svg10.dtd">
<!-- Creator: CorelDRAW -->
<svg xmlns="http://www.w3.org/2000/svg" xml:space="preserve" width="1300px" height="1300px" version="1.0" style="shape-rendering:geometricPrecision; text-rendering:geometricPrecision; image-rendering:optimizeQuality; fill-rule:evenodd; clip-rule:evenodd"
viewBox="0 0 1300 1056"
 xmlns:xlink="http://www.w3.org/1999/xlink">
 <defs>
  <style type="text/css">
   <![CDATA[
    .fil0 {fill:#FFFF66;fill-opacity:0.501961}
   ]]>
  </style>
 </defs>
 <g id="_100:master">
  <metadata id="CorelCorpID_0Corel-Layer"/>
  <path class="fil0" d="M743 767c-13,0 -26,-4 -37,-12 -30,-22 -58,-66 -64,-112 8,-1 16,-1 24,-1 19,0 35,3 49,9 32,14 60,43 60,87 0,21 -9,29 -32,29zm-254 -117c-21,0 -41,-20 -41,-41 0,-21 20,-40 41,-40l16 0c43,0 55,1 98,-7 31,-100 75,-188 126,-273 46,36 76,85 76,145 0,56 -21,99 -46,135l135 0 -1 81 -91 0c4,19 7,41 7,64 0,53 -13,97 -41,122 -11,9 -24,13 -41,13 -68,0 -104,-61 -121,-114 -8,-24 -14,-55 -14,-85l-87 0 0 0 -16 0zm160 -96l0 0c19,-57 48,-108 73,-160 15,17 37,43 40,72 -22,44 -63,72 -113,88z"/>
 </g>
</svg>
