<?xml version="1.0" encoding="UTF-8"?>
<!DOCTYPE svg PUBLIC "-//W3C//DTD SVG 1.0//EN" "http://www.w3.org/TR/2001/REC-SVG-20010904/DTD/svg10.dtd">
<!-- Creator: CorelDRAW -->
<svg xmlns="http://www.w3.org/2000/svg" xml:space="preserve" width="1300px" height="1300px" version="1.0" style="shape-rendering:geometricPrecision; text-rendering:geometricPrecision; image-rendering:optimizeQuality; fill-rule:evenodd; clip-rule:evenodd"
viewBox="0 0 1300 1056"
 xmlns:xlink="http://www.w3.org/1999/xlink">
 <defs>
  <style type="text/css">
   <![CDATA[
    .fil0 {fill:#FFFF66;fill-opacity:0.501961}
   ]]>
  </style>
 </defs>
 <g id="_100:master">
  <metadata id="CorelCorpID_0Corel-Layer"/>
  <path class="fil0" d="M779 460c11,62 32,109 111,109l52 0 1 81 -51 0c-115,0 -135,-94 -152,-192l-7 0c-119,0 -207,59 -255,132 -19,27 -31,58 -36,92 0,74 59,114 122,129 22,5 47,7 77,7 77,0 147,-16 211,-31 -14,29 -27,50 -46,83 -61,17 -119,30 -187,30 -101,0 -172,-35 -203,-104 -11,-23 -16,-51 -16,-83 0,-112 56,-190 119,-243 25,-20 50,-36 79,-48 -26,-7 -51,-17 -84,-17 -52,0 -64,32 -82,63 -9,13 -16,23 -36,23 -3,0 -9,0 -16,-1 29,-51 47,-114 94,-145 15,-9 33,-14 54,-14 43,0 72,13 111,25 60,19 146,32 226,40l-37 71c-14,-3 -31,-5 -49,-7z"/>
 </g>
</svg>
