<?xml version="1.0" encoding="UTF-8"?>
<!DOCTYPE svg PUBLIC "-//W3C//DTD SVG 1.0//EN" "http://www.w3.org/TR/2001/REC-SVG-20010904/DTD/svg10.dtd">
<!-- Creator: CorelDRAW -->
<svg xmlns="http://www.w3.org/2000/svg" xml:space="preserve" width="1300px" height="1300px" version="1.0" style="shape-rendering:geometricPrecision; text-rendering:geometricPrecision; image-rendering:optimizeQuality; fill-rule:evenodd; clip-rule:evenodd"
viewBox="0 0 1300 1056"
 xmlns:xlink="http://www.w3.org/1999/xlink">
 <defs>
  <style type="text/css">
   <![CDATA[
    .fil0 {fill:#FFFF66;fill-opacity:0.501961}
   ]]>
  </style>
 </defs>
 <g id="_100:master">
  <metadata id="CorelCorpID_0Corel-Layer"/>
  <path class="fil0" d="M771 526c0,27 18,43 44,43l109 0c1,-4 1,-7 1,-10l0 -10c0,-69 -37,-118 -77,-151 -29,25 -55,56 -70,93 -5,12 -7,24 -7,35zm204 -11c0,77 -20,135 -99,135l-69 0c-56,0 -82,-37 -82,-93 0,-82 42,-139 77,-188 -15,-9 -33,-13 -51,-19l32 -75c82,26 146,82 177,159 9,26 15,52 15,81l0 0z"/>
 </g>
</svg>
