<?xml version="1.0" encoding="UTF-8"?>
<!DOCTYPE svg PUBLIC "-//W3C//DTD SVG 1.0//EN" "http://www.w3.org/TR/2001/REC-SVG-20010904/DTD/svg10.dtd">
<!-- Creator: CorelDRAW -->
<svg xmlns="http://www.w3.org/2000/svg" xml:space="preserve" width="1300px" height="1300px" version="1.0" style="shape-rendering:geometricPrecision; text-rendering:geometricPrecision; image-rendering:optimizeQuality; fill-rule:evenodd; clip-rule:evenodd"
viewBox="0 0 1300 1056"
 xmlns:xlink="http://www.w3.org/1999/xlink">
 <defs>
  <style type="text/css">
   <![CDATA[
    .fil0 {fill:#FFFF66;fill-opacity:0.501961}
   ]]>
  </style>
 </defs>
 <g id="_100:master">
  <metadata id="CorelCorpID_0Corel-Layer"/>
  <path class="fil0" d="M772 434c-19,0 -37,16 -37,35 0,25 70,17 88,26 9,5 13,12 13,26 0,35 -23,66 -39,86 -32,34 -76,41 -141,43l1 -22c41,-15 91,-36 124,-57 10,-6 15,-11 15,-15 0,-9 -38,-10 -53,-12 -24,-3 -43,-6 -43,-33 0,-26 17,-60 28,-82 11,-20 32,-55 59,-55 16,0 22,17 22,33 0,8 -2,16 -3,22l-3 11 -11 -3c-5,-1 -13,-3 -20,-3l0 0z"/>
 </g>
</svg>
