<?xml version="1.0" encoding="UTF-8"?>
<!DOCTYPE svg PUBLIC "-//W3C//DTD SVG 1.0//EN" "http://www.w3.org/TR/2001/REC-SVG-20010904/DTD/svg10.dtd">
<!-- Creator: CorelDRAW -->
<svg xmlns="http://www.w3.org/2000/svg" xml:space="preserve" width="1300px" height="1300px" version="1.0" style="shape-rendering:geometricPrecision; text-rendering:geometricPrecision; image-rendering:optimizeQuality; fill-rule:evenodd; clip-rule:evenodd"
viewBox="0 0 1300 1056"
 xmlns:xlink="http://www.w3.org/1999/xlink">
 <defs>
  <style type="text/css">
   <![CDATA[
    .fil0 {fill:#FFFF66;fill-opacity:0.501961}
   ]]>
  </style>
 </defs>
 <g id="_100:master">
  <metadata id="CorelCorpID_0Corel-Layer"/>
  <path class="fil0" d="M926 569l0 81 -26 0c-111,0 -161,-49 -202,-119 -20,81 -75,119 -179,119l-111 0c-20,0 -41,-20 -41,-41 1,-21 21,-40 41,-40 39,0 78,0 117,0 77,0 130,-21 147,-83 -53,-82 -123,-148 -212,-197 7,-27 22,-55 35,-78 26,-51 73,-70 126,-94 77,-33 153,-56 237,-81l-12 71c-115,39 -238,75 -329,138 70,45 122,92 170,159 47,66 80,165 194,165l45 0z"/>
 </g>
</svg>
