<?xml version="1.0" encoding="UTF-8"?>
<!DOCTYPE svg PUBLIC "-//W3C//DTD SVG 1.0//EN" "http://www.w3.org/TR/2001/REC-SVG-20010904/DTD/svg10.dtd">
<!-- Creator: CorelDRAW -->
<svg xmlns="http://www.w3.org/2000/svg" xml:space="preserve" width="1300px" height="1300px" version="1.0" style="shape-rendering:geometricPrecision; text-rendering:geometricPrecision; image-rendering:optimizeQuality; fill-rule:evenodd; clip-rule:evenodd"
viewBox="0 0 1300 1056"
 xmlns:xlink="http://www.w3.org/1999/xlink">
 <defs>
  <style type="text/css">
   <![CDATA[
    .fil0 {fill:#996633;fill-opacity:0.501961}
   ]]>
  </style>
 </defs>
 <g id="_100:master">
  <metadata id="CorelCorpID_0Corel-Layer"/>
  <path class="fil0" d="M914 175c0,-32 -1,-60 -4,-91l59 -47c9,147 9,300 28,438 5,52 25,94 83,94l25 0 0 81 -43 0c-121,0 -122,-188 -125,-276 -26,109 -60,205 -146,252 -29,16 -62,24 -105,24l-23 0 -18 -81 30 0c84,0 131,-21 162,-76 -37,-79 -75,-141 -128,-204l-23 22c-27,-41 -55,-76 -87,-111l35 -90c96,86 183,201 233,330 31,-77 47,-163 47,-265z"/>
 </g>
</svg>
