<?xml version="1.0" encoding="UTF-8"?>
<!DOCTYPE svg PUBLIC "-//W3C//DTD SVG 1.0//EN" "http://www.w3.org/TR/2001/REC-SVG-20010904/DTD/svg10.dtd">
<!-- Creator: CorelDRAW -->
<svg xmlns="http://www.w3.org/2000/svg" xml:space="preserve" width="1300px" height="1300px" version="1.0" style="shape-rendering:geometricPrecision; text-rendering:geometricPrecision; image-rendering:optimizeQuality; fill-rule:evenodd; clip-rule:evenodd"
viewBox="0 0 1300 1056"
 xmlns:xlink="http://www.w3.org/1999/xlink">
 <defs>
  <style type="text/css">
   <![CDATA[
    .fil0 {fill:#FFFF66;fill-opacity:0.501961}
   ]]>
  </style>
 </defs>
 <g id="_100:master">
  <metadata id="CorelCorpID_0Corel-Layer"/>
  <path class="fil0" d="M668 569l0 0 45 0c87,0 120,-38 120,-125 0,-121 -11,-282 -18,-403l56 -42c5,115 5,265 9,380 3,106 18,190 127,190l49 0 0 81 -46 0c-84,0 -125,-39 -148,-105 -21,71 -66,105 -153,105l-41 0 -16 0c-20,0 -41,-20 -41,-41 1,-21 21,-40 41,-40l16 0z"/>
 </g>
</svg>
