<?xml version="1.0" encoding="UTF-8"?>
<!DOCTYPE svg PUBLIC "-//W3C//DTD SVG 1.0//EN" "http://www.w3.org/TR/2001/REC-SVG-20010904/DTD/svg10.dtd">
<!-- Creator: CorelDRAW -->
<svg xmlns="http://www.w3.org/2000/svg" xml:space="preserve" width="1300px" height="1300px" version="1.0" style="shape-rendering:geometricPrecision; text-rendering:geometricPrecision; image-rendering:optimizeQuality; fill-rule:evenodd; clip-rule:evenodd"
viewBox="0 0 1300 1056"
 xmlns:xlink="http://www.w3.org/1999/xlink">
 <defs>
  <style type="text/css">
   <![CDATA[
    .fil0 {fill:#CC9933;fill-opacity:0.501961}
   ]]>
  </style>
 </defs>
 <g id="_100:master">
  <metadata id="CorelCorpID_0Corel-Layer"/>
  <path class="fil0" d="M891 539c0,-21 -14,-44 -23,-58 -20,35 -43,61 -72,88 26,0 96,2 95,-30zm59 -390c0,111 -10,204 -49,275 18,37 37,74 37,122 0,53 -24,104 -76,104l-164 0 -18 -81 3 0c38,0 68,-30 91,-51 24,-22 50,-53 67,-79 -81,-100 -160,-190 -249,-281l33 -82c46,52 85,101 128,153l57 72c20,24 40,50 61,77 16,-38 17,-88 17,-143 0,-62 5,-103 -35,-153l55 -82 76 86 -34 63z"/>
 </g>
</svg>
