<?xml version="1.0" encoding="UTF-8"?>
<!DOCTYPE svg PUBLIC "-//W3C//DTD SVG 1.0//EN" "http://www.w3.org/TR/2001/REC-SVG-20010904/DTD/svg10.dtd">
<!-- Creator: CorelDRAW -->
<svg xmlns="http://www.w3.org/2000/svg" xml:space="preserve" width="1300px" height="1300px" version="1.0" style="shape-rendering:geometricPrecision; text-rendering:geometricPrecision; image-rendering:optimizeQuality; fill-rule:evenodd; clip-rule:evenodd"
viewBox="0 0 1300 1056"
 xmlns:xlink="http://www.w3.org/1999/xlink">
 <defs>
  <style type="text/css">
   <![CDATA[
    .fil0 {fill:#FFFF66;fill-opacity:0.501961}
   ]]>
  </style>
 </defs>
 <g id="_100:master">
  <metadata id="CorelCorpID_0Corel-Layer"/>
  <g id="_601947376">
   <g>
    <path class="fil0" d="M603 641c0,69 51,95 120,95 66,0 127,-18 170,-43 16,-10 28,-21 38,-34 3,-14 4,-29 4,-47 0,-183 -23,-364 -36,-536l54 -43c11,176 23,321 29,489l0 50c0,37 0,70 -9,100 -28,96 -142,145 -266,145 -94,0 -146,-47 -146,-140 0,-88 34,-158 60,-224 11,5 16,13 16,28 0,22 -10,48 -17,69 -8,26 -17,59 -17,91l0 0z"/>
   </g>
  </g>
 </g>
</svg>
