<?xml version="1.0" encoding="UTF-8"?>
<!DOCTYPE svg PUBLIC "-//W3C//DTD SVG 1.0//EN" "http://www.w3.org/TR/2001/REC-SVG-20010904/DTD/svg10.dtd">
<!-- Creator: CorelDRAW -->
<svg xmlns="http://www.w3.org/2000/svg" xml:space="preserve" width="1300px" height="1300px" version="1.0" style="shape-rendering:geometricPrecision; text-rendering:geometricPrecision; image-rendering:optimizeQuality; fill-rule:evenodd; clip-rule:evenodd"
viewBox="0 0 1300 1056"
 xmlns:xlink="http://www.w3.org/1999/xlink">
 <defs>
  <style type="text/css">
   <![CDATA[
    .fil0 {fill:#FFFF66;fill-opacity:0.501961}
   ]]>
  </style>
 </defs>
 <g id="_100:master">
  <metadata id="CorelCorpID_0Corel-Layer"/>
  <path class="fil0" d="M377 645c0,69 51,95 120,95 66,0 127,-18 170,-43 16,-10 29,-22 38,-34 4,-15 4,-29 4,-48 0,-182 -23,-363 -36,-535l54 -43c8,118 20,229 27,345 4,64 7,135 40,170 9,11 23,17 39,17l77 0 0 81 -75 0c-43,0 -67,-26 -78,-60 0,133 -67,190 -174,217 -31,9 -65,14 -102,14 -94,0 -146,-48 -146,-140 0,-89 33,-159 59,-225 11,5 16,13 16,28 0,22 -10,49 -16,70 -8,26 -17,59 -17,91l0 0z"/>
 </g>
</svg>
