<?xml version="1.0" encoding="UTF-8"?>
<!DOCTYPE svg PUBLIC "-//W3C//DTD SVG 1.0//EN" "http://www.w3.org/TR/2001/REC-SVG-20010904/DTD/svg10.dtd">
<!-- Creator: CorelDRAW -->
<svg xmlns="http://www.w3.org/2000/svg" xml:space="preserve" width="1300px" height="1300px" version="1.0" style="shape-rendering:geometricPrecision; text-rendering:geometricPrecision; image-rendering:optimizeQuality; fill-rule:evenodd; clip-rule:evenodd"
viewBox="0 0 1300 1056"
 xmlns:xlink="http://www.w3.org/1999/xlink">
 <defs>
  <style type="text/css">
   <![CDATA[
    .fil0 {fill:#FFFF66;fill-opacity:0.501961}
   ]]>
  </style>
 </defs>
 <g id="_100:master">
  <metadata id="CorelCorpID_0Corel-Layer"/>
  <g id="_784819712">
   <g>
    <path class="fil0" d="M759 432c-15,0 -33,12 -33,25 0,14 18,21 29,26l16 6c4,-10 7,-20 7,-35 0,-14 -6,-22 -19,-22l0 0zm-20 99c-22,-10 -50,-23 -50,-55 0,-37 28,-66 54,-80 11,-6 21,-8 31,-8 30,0 43,25 43,56 0,24 -5,39 -13,57l32 12 0 54 -58 -21c-39,43 -76,71 -128,104l2 -59c35,-16 59,-34 87,-60l0 0z"/>
   </g>
  </g>
 </g>
</svg>
