<?xml version="1.0" encoding="UTF-8"?>
<!DOCTYPE svg PUBLIC "-//W3C//DTD SVG 1.0//EN" "http://www.w3.org/TR/2001/REC-SVG-20010904/DTD/svg10.dtd">
<!-- Creator: CorelDRAW -->
<svg xmlns="http://www.w3.org/2000/svg" xml:space="preserve" width="1300px" height="1300px" version="1.0" style="shape-rendering:geometricPrecision; text-rendering:geometricPrecision; image-rendering:optimizeQuality; fill-rule:evenodd; clip-rule:evenodd"
viewBox="0 0 1300 1056"
 xmlns:xlink="http://www.w3.org/1999/xlink">
 <defs>
  <style type="text/css">
   <![CDATA[
    .fil0 {fill:#FFFF66;fill-opacity:0.501961}
   ]]>
  </style>
 </defs>
 <g id="_100:master">
  <metadata id="CorelCorpID_0Corel-Layer"/>
  <g id="_784828800">
   <g>
    <path class="fil0" d="M676 528c11,16 30,28 49,34l47 -22 -10 45c-44,15 -82,40 -115,65l-2 -36c9,-6 25,-19 35,-25 -13,-11 -32,-28 -32,-50 0,-34 35,-58 70,-58 7,0 13,2 20,4l0 34c-5,-1 -9,-1 -12,-2l-8 0c-18,0 -31,4 -42,11l0 0z"/>
   </g>
  </g>
 </g>
</svg>
