<?xml version="1.0" encoding="UTF-8"?>
<!DOCTYPE svg PUBLIC "-//W3C//DTD SVG 1.0//EN" "http://www.w3.org/TR/2001/REC-SVG-20010904/DTD/svg10.dtd">
<!-- Creator: CorelDRAW -->
<svg xmlns="http://www.w3.org/2000/svg" xml:space="preserve" width="1300px" height="1300px" version="1.0" style="shape-rendering:geometricPrecision; text-rendering:geometricPrecision; image-rendering:optimizeQuality; fill-rule:evenodd; clip-rule:evenodd"
viewBox="0 0 1300 1056"
 xmlns:xlink="http://www.w3.org/1999/xlink">
 <defs>
  <style type="text/css">
   <![CDATA[
    .fil0 {fill:#663300;fill-opacity:0.501961}
   ]]>
  </style>
 </defs>
 <g id="_100:master">
  <metadata id="CorelCorpID_0Corel-Layer"/>
  <path class="fil0" d="M788 491c19,46 51,78 115,78l104 0 1 81 -103 0c-103,0 -138,-76 -158,-160 -46,3 -73,17 -100,39 -4,11 -5,20 -5,34 0,29 6,62 10,93 11,79 28,162 31,246l-54 -20c0,-80 -17,-158 -26,-229 -3,-22 -5,-42 -5,-58 0,-108 78,-180 174,-180 11,0 23,0 33,1 -14,-12 -28,-23 -42,-31 -13,-8 -25,-12 -38,-12 -25,0 -41,24 -51,40l-34 -9c28,-47 46,-113 108,-113 82,0 128,107 200,143l-57 73c-29,-7 -66,-14 -103,-16z"/>
 </g>
</svg>
