<?xml version="1.0" encoding="UTF-8"?>
<!DOCTYPE svg PUBLIC "-//W3C//DTD SVG 1.0//EN" "http://www.w3.org/TR/2001/REC-SVG-20010904/DTD/svg10.dtd">
<!-- Creator: CorelDRAW -->
<svg xmlns="http://www.w3.org/2000/svg" xml:space="preserve" width="1300px" height="1300px" version="1.0" style="shape-rendering:geometricPrecision; text-rendering:geometricPrecision; image-rendering:optimizeQuality; fill-rule:evenodd; clip-rule:evenodd"
viewBox="0 0 1300 1056"
 xmlns:xlink="http://www.w3.org/1999/xlink">
 <defs>
  <style type="text/css">
   <![CDATA[
    .fil0 {fill:#996633;fill-opacity:0.501961}
   ]]>
  </style>
 </defs>
 <g id="_100:master">
  <metadata id="CorelCorpID_0Corel-Layer"/>
  <path class="fil0" d="M489 650c-21,0 -41,-20 -41,-41 0,-21 20,-40 41,-40l63 0c58,0 92,-19 115,-53 31,-42 53,-102 102,-125 11,-5 24,-8 38,-8 69,0 101,70 101,137 0,47 -12,91 -25,128 -5,13 -12,30 -28,30 -7,0 -21,-4 -39,-14 -19,-9 -46,-22 -80,-38 -22,-11 -39,-29 -47,-52 -20,30 -48,57 -84,69 -11,5 -24,7 -36,7 -27,0 -54,0 -80,0zm307 -198c40,0 60,38 60,79 0,22 -4,45 -10,66 -36,-17 -108,-32 -108,-85 0,-32 25,-60 58,-60z"/>
 </g>
</svg>
