<?xml version="1.0" encoding="UTF-8"?>
<!DOCTYPE svg PUBLIC "-//W3C//DTD SVG 1.0//EN" "http://www.w3.org/TR/2001/REC-SVG-20010904/DTD/svg10.dtd">
<!-- Creator: CorelDRAW -->
<svg xmlns="http://www.w3.org/2000/svg" xml:space="preserve" width="1300px" height="1300px" version="1.0" style="shape-rendering:geometricPrecision; text-rendering:geometricPrecision; image-rendering:optimizeQuality; fill-rule:evenodd; clip-rule:evenodd"
viewBox="0 0 1300 1056"
 xmlns:xlink="http://www.w3.org/1999/xlink">
 <defs>
  <style type="text/css">
   <![CDATA[
    .fil0 {fill:fuchsia;fill-opacity:0.501961}
   ]]>
  </style>
 </defs>
 <g id="_100:master">
  <metadata id="CorelCorpID_0Corel-Layer"/>
  <g id="_601955568">
   <g>
    <path class="fil0" d="M892 571c-35,-8 -81,-17 -125,-17 -57,0 -88,14 -118,40 -5,11 -5,19 -5,34 0,28 6,61 10,93 11,78 28,161 30,245l-54 -20c0,-80 -17,-158 -25,-229 -4,-22 -5,-42 -5,-57 0,-83 44,-141 103,-167 21,-9 45,-14 71,-14 11,0 23,1 33,2 -15,-13 -29,-23 -43,-32 -13,-8 -25,-12 -38,-12 -24,0 -40,24 -50,40l-35 -9c22,-36 36,-82 72,-103 9,-6 22,-9 36,-9 31,0 53,14 72,28 11,9 21,18 31,29l32 32c19,20 40,41 66,53l-58 73z"/>
   </g>
  </g>
 </g>
</svg>
