<?xml version="1.0" encoding="UTF-8"?>
<!DOCTYPE svg PUBLIC "-//W3C//DTD SVG 1.0//EN" "http://www.w3.org/TR/2001/REC-SVG-20010904/DTD/svg10.dtd">
<!-- Creator: CorelDRAW -->
<svg xmlns="http://www.w3.org/2000/svg" xml:space="preserve" width="1300px" height="1300px" version="1.0" style="shape-rendering:geometricPrecision; text-rendering:geometricPrecision; image-rendering:optimizeQuality; fill-rule:evenodd; clip-rule:evenodd"
viewBox="0 0 1300 1056"
 xmlns:xlink="http://www.w3.org/1999/xlink">
 <defs>
  <style type="text/css">
   <![CDATA[
    .fil0 {fill:#666633;fill-opacity:0.501961}
   ]]>
  </style>
 </defs>
 <g id="_100:master">
  <metadata id="CorelCorpID_0Corel-Layer"/>
  <path class="fil0" d="M457 650c-21,0 -41,-20 -41,-41 0,-21 21,-40 41,-40l16 0 0 0 14 0c47,0 83,-9 114,-54 38,-55 67,-132 140,-132 56,0 82,46 94,90 12,43 22,79 62,91 11,3 28,5 45,5l33 0 0 81 -34 0c-55,0 -89,-18 -110,-53 -3,19 -8,33 -14,51 -14,38 -32,34 -69,16 -18,-9 -44,-23 -78,-39 -22,-10 -38,-28 -47,-51 -20,29 -48,56 -84,69 -11,4 -23,7 -36,7 -15,0 -31,0 -46,0zm272 -198c71,0 63,98 51,144 -37,-16 -108,-32 -108,-85 0,-31 25,-59 57,-59z"/>
 </g>
</svg>
