<?xml version="1.0" encoding="UTF-8"?>
<!DOCTYPE svg PUBLIC "-//W3C//DTD SVG 1.0//EN" "http://www.w3.org/TR/2001/REC-SVG-20010904/DTD/svg10.dtd">
<!-- Creator: CorelDRAW -->
<svg xmlns="http://www.w3.org/2000/svg" xml:space="preserve" width="1300px" height="1300px" version="1.0" style="shape-rendering:geometricPrecision; text-rendering:geometricPrecision; image-rendering:optimizeQuality; fill-rule:evenodd; clip-rule:evenodd"
viewBox="0 0 1300 1056"
 xmlns:xlink="http://www.w3.org/1999/xlink">
 <defs>
  <style type="text/css">
   <![CDATA[
    .fil0 {fill:#FFFF66;fill-opacity:0.501961}
   ]]>
  </style>
 </defs>
 <g id="_100:master">
  <metadata id="CorelCorpID_0Corel-Layer"/>
  <path class="fil0" d="M948 99c-24,-12 -57,-23 -91,-23 -60,0 -115,35 -115,94 0,47 50,57 97,57 81,0 124,-40 180,-68l-9 104c-86,24 -149,93 -195,159 -47,65 -87,143 -105,231l-61 -4c35,-138 82,-241 164,-334 -72,-3 -129,-32 -129,-108 0,-53 29,-104 56,-136 25,-32 67,-71 120,-71 38,0 71,21 94,38l-6 61z"/>
 </g>
</svg>
