<?xml version="1.0" encoding="UTF-8"?>
<!DOCTYPE svg PUBLIC "-//W3C//DTD SVG 1.0//EN" "http://www.w3.org/TR/2001/REC-SVG-20010904/DTD/svg10.dtd">
<!-- Creator: CorelDRAW -->
<svg xmlns="http://www.w3.org/2000/svg" xml:space="preserve" width="1300px" height="1300px" version="1.0" style="shape-rendering:geometricPrecision; text-rendering:geometricPrecision; image-rendering:optimizeQuality; fill-rule:evenodd; clip-rule:evenodd"
viewBox="0 0 1300 1056"
 xmlns:xlink="http://www.w3.org/1999/xlink">
 <defs>
  <style type="text/css">
   <![CDATA[
    .fil0 {fill:#FFFF66;fill-opacity:0.501961}
   ]]>
  </style>
 </defs>
 <g id="_100:master">
  <metadata id="CorelCorpID_0Corel-Layer"/>
  <path class="fil0" d="M715 749c84,0 171,-25 207,-76 4,-16 5,-33 5,-52 0,-77 -18,-145 -36,-206l51 -57c23,66 34,156 34,243 0,20 -2,38 -5,55 -19,119 -136,174 -273,174 -95,0 -147,-47 -147,-139 0,-19 3,-38 6,-56 11,-63 32,-116 53,-169 11,5 17,13 17,28 0,7 -2,17 -6,29 -11,39 -28,84 -28,132 0,70 51,94 122,94l0 0z"/>
 </g>
</svg>
