<?xml version="1.0" encoding="UTF-8"?>
<!DOCTYPE svg PUBLIC "-//W3C//DTD SVG 1.0//EN" "http://www.w3.org/TR/2001/REC-SVG-20010904/DTD/svg10.dtd">
<!-- Creator: CorelDRAW -->
<svg xmlns="http://www.w3.org/2000/svg" xml:space="preserve" width="1300px" height="1300px" version="1.0" style="shape-rendering:geometricPrecision; text-rendering:geometricPrecision; image-rendering:optimizeQuality; fill-rule:evenodd; clip-rule:evenodd"
viewBox="0 0 1300 1056"
 xmlns:xlink="http://www.w3.org/1999/xlink">
 <defs>
  <style type="text/css">
   <![CDATA[
    .fil0 {fill:#FFFF66;fill-opacity:0.501961}
   ]]>
  </style>
 </defs>
 <g id="_100:master">
  <metadata id="CorelCorpID_0Corel-Layer"/>
  <path class="fil0" d="M872 674c-25,-77 -32,-170 -32,-270l0 -73c-31,2 -73,10 -106,10 -74,0 -109,-34 -109,-105 0,-91 48,-170 98,-213 19,-15 39,-23 60,-23 95,0 113,97 117,192 3,39 3,83 3,132 0,112 5,213 49,282l-80 68zm-196 -477c0,28 15,50 43,50 16,1 33,0 48,0l76 0c0,-60 -13,-110 -45,-138 -12,-10 -26,-14 -45,-14 -47,0 -77,57 -77,102z"/>
 </g>
</svg>
