<?xml version="1.0" encoding="UTF-8"?>
<!DOCTYPE svg PUBLIC "-//W3C//DTD SVG 1.0//EN" "http://www.w3.org/TR/2001/REC-SVG-20010904/DTD/svg10.dtd">
<!-- Creator: CorelDRAW -->
<svg xmlns="http://www.w3.org/2000/svg" xml:space="preserve" width="1300px" height="1300px" version="1.0" style="shape-rendering:geometricPrecision; text-rendering:geometricPrecision; image-rendering:optimizeQuality; fill-rule:evenodd; clip-rule:evenodd"
viewBox="0 0 1300 1056"
 xmlns:xlink="http://www.w3.org/1999/xlink">
 <defs>
  <style type="text/css">
   <![CDATA[
    .fil0 {fill:#FFFF66;fill-opacity:0.501961}
   ]]>
  </style>
 </defs>
 <g id="_100:master">
  <metadata id="CorelCorpID_0Corel-Layer"/>
  <path class="fil0" d="M846 564c43,0 70,-38 70,-82 0,-54 -27,-96 -49,-132 -32,-51 -66,-93 -106,-140 -45,51 -79,94 -116,148 -19,28 -35,58 -46,90 -5,14 -8,26 -8,38 0,42 22,71 63,71 61,0 72,-58 73,-128l50 -2c3,59 9,137 69,137l0 0zm-213 91c-65,0 -101,-55 -101,-121 0,-77 36,-143 69,-196 36,-58 85,-117 128,-165 -24,-28 -58,-65 -80,-93l55 -80c71,99 163,184 224,291 25,46 47,99 47,164 0,79 -26,150 -71,188 -17,14 -37,20 -61,20 -59,0 -87,-47 -95,-98 -19,46 -54,90 -115,90l0 0z"/>
 </g>
</svg>
