<?xml version="1.0" encoding="UTF-8"?>
<!DOCTYPE svg PUBLIC "-//W3C//DTD SVG 1.0//EN" "http://www.w3.org/TR/2001/REC-SVG-20010904/DTD/svg10.dtd">
<!-- Creator: CorelDRAW -->
<svg xmlns="http://www.w3.org/2000/svg" xml:space="preserve" width="1300px" height="1300px" version="1.0" style="shape-rendering:geometricPrecision; text-rendering:geometricPrecision; image-rendering:optimizeQuality; fill-rule:evenodd; clip-rule:evenodd"
viewBox="0 0 1300 1056"
 xmlns:xlink="http://www.w3.org/1999/xlink">
 <defs>
  <style type="text/css">
   <![CDATA[
    .fil0 {fill:#FFFF66;fill-opacity:0.501961}
   ]]>
  </style>
 </defs>
 <g id="_100:master">
  <metadata id="CorelCorpID_0Corel-Layer"/>
  <path class="fil0" d="M804 283c-34,0 -65,-10 -90,-21l-1 391 -60 7 0 -296c0,-80 -10,-158 -28,-221 -7,-24 -17,-45 -27,-62l77 -65c13,43 28,81 32,129 22,-50 46,-103 91,-131 15,-9 31,-14 50,-14 47,0 84,28 105,57l-29 39c-21,-15 -46,-24 -78,-24 -50,0 -83,35 -83,82 0,39 44,49 82,49 59,0 97,-19 133,-45l4 58c-45,39 -96,67 -178,67l0 0z"/>
 </g>
</svg>
