<?xml version="1.0" encoding="UTF-8"?>
<!DOCTYPE svg PUBLIC "-//W3C//DTD SVG 1.0//EN" "http://www.w3.org/TR/2001/REC-SVG-20010904/DTD/svg10.dtd">
<!-- Creator: CorelDRAW -->
<svg xmlns="http://www.w3.org/2000/svg" xml:space="preserve" width="1300px" height="1300px" version="1.0" style="shape-rendering:geometricPrecision; text-rendering:geometricPrecision; image-rendering:optimizeQuality; fill-rule:evenodd; clip-rule:evenodd"
viewBox="0 0 1300 1056"
 xmlns:xlink="http://www.w3.org/1999/xlink">
 <defs>
  <style type="text/css">
   <![CDATA[
    .fil0 {fill:#FFFF66;fill-opacity:0.501961}
   ]]>
  </style>
 </defs>
 <g id="_100:master">
  <metadata id="CorelCorpID_0Corel-Layer"/>
  <path class="fil0" d="M762 239c-19,0 -36,-5 -50,-12l0 427 -63 8 0 -304c0,-108 -13,-223 -56,-291l79 -67c16,44 26,98 56,128 10,11 22,15 36,15 70,0 82,-58 82,-127l50 2c4,61 6,124 70,124 53,0 51,-67 51,-111l47 -8c1,12 2,24 2,36 0,78 -30,181 -109,181 -49,0 -78,-32 -90,-69 -16,37 -55,68 -105,68z"/>
 </g>
</svg>
