<?xml version="1.0" encoding="UTF-8"?>
<!DOCTYPE svg PUBLIC "-//W3C//DTD SVG 1.0//EN" "http://www.w3.org/TR/2001/REC-SVG-20010904/DTD/svg10.dtd">
<!-- Creator: CorelDRAW -->
<svg xmlns="http://www.w3.org/2000/svg" xml:space="preserve" width="1300px" height="1300px" version="1.0" style="shape-rendering:geometricPrecision; text-rendering:geometricPrecision; image-rendering:optimizeQuality; fill-rule:evenodd; clip-rule:evenodd"
viewBox="0 0 1300 1056"
 xmlns:xlink="http://www.w3.org/1999/xlink">
 <defs>
  <style type="text/css">
   <![CDATA[
    .fil0 {fill:#99FF00;fill-opacity:0.501961}
   ]]>
  </style>
 </defs>
 <g id="_100:master">
  <metadata id="CorelCorpID_0Corel-Layer"/>
  <path class="fil0" d="M1121 569l0 81 -33 0c-49,0 -84,-11 -112,-37 -4,147 -126,211 -276,211 -95,0 -147,-48 -147,-140 0,-18 2,-37 5,-55 11,-63 33,-116 54,-169 11,5 17,12 17,27 0,8 -2,17 -5,30 -12,38 -30,84 -30,131 0,69 52,95 120,95l0 0c84,0 172,-27 209,-78 3,-14 3,-28 3,-47 0,-12 -1,-27 -3,-45 -9,-58 -21,-121 -40,-168l51 -55c13,44 24,99 35,142 15,56 53,77 127,77l25 0z"/>
 </g>
</svg>
