<?xml version="1.0" encoding="UTF-8"?>
<!DOCTYPE svg PUBLIC "-//W3C//DTD SVG 1.0//EN" "http://www.w3.org/TR/2001/REC-SVG-20010904/DTD/svg10.dtd">
<!-- Creator: CorelDRAW -->
<svg xmlns="http://www.w3.org/2000/svg" xml:space="preserve" width="1300px" height="1300px" version="1.0" style="shape-rendering:geometricPrecision; text-rendering:geometricPrecision; image-rendering:optimizeQuality; fill-rule:evenodd; clip-rule:evenodd"
viewBox="0 0 1300 1056"
 xmlns:xlink="http://www.w3.org/1999/xlink">
 <defs>
  <style type="text/css">
   <![CDATA[
    .fil0 {fill:#FFFF66;fill-opacity:0.501961}
   ]]>
  </style>
 </defs>
 <g id="_100:master">
  <metadata id="CorelCorpID_0Corel-Layer"/>
  <path class="fil0" d="M724 650c-61,0 -85,-45 -85,-105 0,-72 33,-139 72,-174 15,-13 32,-19 49,-19 48,0 77,35 95,68 22,38 35,93 38,148l95 0 -23 82 -77 0c-16,94 -85,142 -175,165 -32,9 -65,13 -102,13 -95,0 -147,-47 -147,-140 0,-90 34,-160 60,-227 11,5 17,13 17,28 0,22 -11,48 -18,70 -7,26 -17,61 -17,93 0,69 52,94 121,94 66,0 129,-18 172,-44 17,-10 31,-22 41,-37l-3 -15 -113 0zm-43 -131c0,29 16,50 46,50l106 0c0,-55 -25,-108 -61,-127 -10,-5 -19,-8 -30,-8 -39,0 -61,47 -61,85z"/>
 </g>
</svg>
