<?xml version="1.0" encoding="UTF-8"?>
<!DOCTYPE svg PUBLIC "-//W3C//DTD SVG 1.0//EN" "http://www.w3.org/TR/2001/REC-SVG-20010904/DTD/svg10.dtd">
<!-- Creator: CorelDRAW -->
<svg xmlns="http://www.w3.org/2000/svg" xml:space="preserve" width="1300px" height="1300px" version="1.0" style="shape-rendering:geometricPrecision; text-rendering:geometricPrecision; image-rendering:optimizeQuality; fill-rule:evenodd; clip-rule:evenodd"
viewBox="0 0 1300 1056"
 xmlns:xlink="http://www.w3.org/1999/xlink">
 <defs>
  <style type="text/css">
   <![CDATA[
    .fil0 {fill:#FFFF66;fill-opacity:0.501961}
   ]]>
  </style>
 </defs>
 <g id="_100:master">
  <metadata id="CorelCorpID_0Corel-Layer"/>
  <path class="fil0" d="M660 651c-60,0 -87,-46 -87,-107 0,-72 35,-141 74,-176 15,-13 32,-19 50,-19 52,0 81,38 100,75 21,42 35,101 35,161 -4,140 -67,204 -183,233 -31,9 -66,13 -104,13 -96,0 -149,-47 -149,-142 0,-91 34,-162 61,-230 12,5 17,13 17,28 0,23 -11,49 -18,71 -7,27 -18,62 -18,94 0,70 53,96 123,96 68,0 131,-18 175,-45 17,-10 32,-22 42,-37l-3 -15 -115 0zm-43 -134c0,30 15,51 45,51l109 0c0,-55 -26,-109 -62,-128 -10,-6 -19,-8 -30,-8 -39,0 -62,47 -62,85z"/>
 </g>
</svg>
