<?xml version="1.0" encoding="UTF-8"?>
<!DOCTYPE svg PUBLIC "-//W3C//DTD SVG 1.0//EN" "http://www.w3.org/TR/2001/REC-SVG-20010904/DTD/svg10.dtd">
<!-- Creator: CorelDRAW -->
<svg xmlns="http://www.w3.org/2000/svg" xml:space="preserve" width="1300px" height="1300px" version="1.0" style="shape-rendering:geometricPrecision; text-rendering:geometricPrecision; image-rendering:optimizeQuality; fill-rule:evenodd; clip-rule:evenodd"
viewBox="0 0 1300 1056"
 xmlns:xlink="http://www.w3.org/1999/xlink">
 <defs>
  <style type="text/css">
   <![CDATA[
    .fil0 {fill:#FFFF66;fill-opacity:0.501961}
   ]]>
  </style>
 </defs>
 <g id="_100:master">
  <metadata id="CorelCorpID_0Corel-Layer"/>
  <g id="_601975664">
   <g>
    <path class="fil0" d="M937 344c23,53 34,108 34,178 0,115 -38,195 -97,249 -28,25 -61,43 -102,51 -8,2 -15,3 -19,3 -34,0 -71,-14 -100,-26 -36,-13 -78,-32 -112,-46 9,-12 15,-22 32,-22 17,0 34,9 49,14 22,7 47,12 76,12 49,0 90,-22 123,-42 54,-35 97,-76 97,-164 0,-61 -13,-117 -34,-160l53 -47z"/>
   </g>
  </g>
 </g>
</svg>
