<?xml version="1.0" encoding="UTF-8"?>
<!DOCTYPE svg PUBLIC "-//W3C//DTD SVG 1.0//EN" "http://www.w3.org/TR/2001/REC-SVG-20010904/DTD/svg10.dtd">
<!-- Creator: CorelDRAW -->
<svg xmlns="http://www.w3.org/2000/svg" xml:space="preserve" width="1300px" height="1300px" version="1.0" style="shape-rendering:geometricPrecision; text-rendering:geometricPrecision; image-rendering:optimizeQuality; fill-rule:evenodd; clip-rule:evenodd"
viewBox="0 0 1300 1056"
 xmlns:xlink="http://www.w3.org/1999/xlink">
 <defs>
  <style type="text/css">
   <![CDATA[
    .fil0 {fill:#333300;fill-opacity:0.501961}
   ]]>
  </style>
 </defs>
 <g id="_100:master">
  <metadata id="CorelCorpID_0Corel-Layer"/>
  <path class="fil0" d="M556 755c8,-12 14,-23 33,-23 16,0 32,8 49,13 21,8 45,14 74,14 50,0 91,-22 123,-42 55,-36 98,-75 98,-164 0,-13 -1,-27 -1,-42 -2,-14 -4,-29 -5,-44 -4,-27 -9,-55 -14,-79l48 -47c7,60 13,124 31,172 15,37 42,56 94,56l28 0 0 81 -33 0c-47,0 -79,-15 -103,-42 -13,71 -46,125 -89,164 -28,25 -62,44 -103,53 -8,1 -15,1 -18,1 -35,0 -71,-14 -101,-26 -36,-13 -77,-31 -111,-45l0 0z"/>
 </g>
</svg>
