<?xml version="1.0" encoding="UTF-8"?>
<!DOCTYPE svg PUBLIC "-//W3C//DTD SVG 1.0//EN" "http://www.w3.org/TR/2001/REC-SVG-20010904/DTD/svg10.dtd">
<!-- Creator: CorelDRAW -->
<svg xmlns="http://www.w3.org/2000/svg" xml:space="preserve" width="1300px" height="1300px" version="1.0" style="shape-rendering:geometricPrecision; text-rendering:geometricPrecision; image-rendering:optimizeQuality; fill-rule:evenodd; clip-rule:evenodd"
viewBox="0 0 1300 1056"
 xmlns:xlink="http://www.w3.org/1999/xlink">
 <defs>
  <style type="text/css">
   <![CDATA[
    .fil0 {fill:#666666;fill-opacity:0.501961}
   ]]>
  </style>
 </defs>
 <g id="_100:master">
  <metadata id="CorelCorpID_0Corel-Layer"/>
  <path class="fil0" d="M40 639c0,71 53,96 123,96 68,0 131,-18 175,-44 16,-9 29,-21 38,-34 4,-14 5,-28 5,-44 0,-63 -19,-114 -34,-164 -6,-18 -12,-37 -19,-55l53 -49c16,67 27,146 61,194 10,15 24,25 41,28 107,-72 205,-167 332,-218 19,-8 39,-11 56,-11 74,0 124,50 148,102 9,19 13,40 13,60 0,43 -24,72 -49,94 -46,38 -115,56 -201,56l-279 0c-31,0 -56,-13 -72,-29 -10,107 -85,161 -180,185 -32,8 -66,12 -103,12 -97,0 -150,-48 -150,-142 0,-92 33,-163 60,-231 11,5 17,16 17,30 0,23 -10,49 -17,70 -8,27 -18,61 -18,94l0 0zm930 -118c-22,-58 -56,-100 -123,-100 -57,0 -110,28 -150,53 -47,27 -95,65 -137,95l217 0c81,0 147,-12 193,-48l0 0z"/>
 </g>
</svg>
