<?xml version="1.0" encoding="UTF-8"?>
<!DOCTYPE svg PUBLIC "-//W3C//DTD SVG 1.0//EN" "http://www.w3.org/TR/2001/REC-SVG-20010904/DTD/svg10.dtd">
<!-- Creator: CorelDRAW -->
<svg xmlns="http://www.w3.org/2000/svg" xml:space="preserve" width="1300px" height="1300px" version="1.0" style="shape-rendering:geometricPrecision; text-rendering:geometricPrecision; image-rendering:optimizeQuality; fill-rule:evenodd; clip-rule:evenodd"
viewBox="0 0 1300 1056"
 xmlns:xlink="http://www.w3.org/1999/xlink">
 <defs>
  <style type="text/css">
   <![CDATA[
    .fil0 {fill:#666666;fill-opacity:0.501961}
   ]]>
  </style>
 </defs>
 <g id="_100:master">
  <metadata id="CorelCorpID_0Corel-Layer"/>
  <path class="fil0" d="M503 650l0 0 -7 0 0 0c-27,-2 -50,-14 -65,-29 -10,107 -85,161 -180,185 -32,8 -66,12 -103,12 -97,0 -150,-48 -150,-142 0,-92 33,-163 60,-231 11,5 17,16 17,30 0,23 -10,49 -17,70 -8,27 -18,61 -18,94l0 0c0,71 53,96 123,96 68,0 131,-18 175,-44 16,-9 29,-21 38,-34 4,-14 5,-28 5,-44 0,-63 -19,-114 -34,-164 -6,-18 -12,-37 -19,-55l53 -49c16,67 27,146 61,194 9,12 24,22 39,27 107,-82 241,-229 347,-229 87,0 161,76 161,162 0,42 -22,72 -46,93 49,-13 98,-23 144,-23l8 0 0 81c-197,0 -395,0 -592,0zm47 -81l185 0c88,0 142,-12 193,-48 -23,-59 -57,-101 -124,-101 -96,0 -191,97 -254,149z"/>
 </g>
</svg>
