<?xml version="1.0" encoding="UTF-8"?>
<!DOCTYPE svg PUBLIC "-//W3C//DTD SVG 1.0//EN" "http://www.w3.org/TR/2001/REC-SVG-20010904/DTD/svg10.dtd">
<!-- Creator: CorelDRAW -->
<svg xmlns="http://www.w3.org/2000/svg" xml:space="preserve" width="1300px" height="1300px" version="1.0" style="shape-rendering:geometricPrecision; text-rendering:geometricPrecision; image-rendering:optimizeQuality; fill-rule:evenodd; clip-rule:evenodd"
viewBox="0 0 1300 1056"
 xmlns:xlink="http://www.w3.org/1999/xlink">
 <defs>
  <style type="text/css">
   <![CDATA[
    .fil0 {fill:#999933;fill-opacity:0.501961}
   ]]>
  </style>
 </defs>
 <g id="_100:master">
  <metadata id="CorelCorpID_0Corel-Layer"/>
  <path class="fil0" d="M550 569l185 0c88,0 142,-12 193,-48 -23,-59 -57,-101 -124,-101 -96,0 -191,97 -254,149zm439 -70c0,42 -22,72 -46,93 49,-13 98,-23 144,-23l8 0 0 81 -346 0 -10 0 -243 0c-58,0 -96,-23 -115,-64 -21,44 -58,64 -121,64l-113 0c-20,0 -41,-20 -41,-41 1,-21 21,-40 41,-40 34,0 68,0 102,0 65,0 96,-19 109,-68 8,-32 6,-97 47,-97l11 1c-1,23 -2,46 -2,68 0,56 19,86 65,94 108,-81 243,-230 349,-230 87,0 161,76 161,162z"/>
 </g>
</svg>
