<?xml version="1.0" encoding="UTF-8"?>
<!DOCTYPE svg PUBLIC "-//W3C//DTD SVG 1.0//EN" "http://www.w3.org/TR/2001/REC-SVG-20010904/DTD/svg10.dtd">
<!-- Creator: CorelDRAW -->
<svg xmlns="http://www.w3.org/2000/svg" xml:space="preserve" width="1300px" height="1300px" version="1.0" style="shape-rendering:geometricPrecision; text-rendering:geometricPrecision; image-rendering:optimizeQuality; fill-rule:evenodd; clip-rule:evenodd"
viewBox="0 0 1300 1056"
 xmlns:xlink="http://www.w3.org/1999/xlink">
 <defs>
  <style type="text/css">
   <![CDATA[
    .fil0 {fill:#6666CC;fill-opacity:0.501961}
   ]]>
  </style>
 </defs>
 <g id="_100:master">
  <metadata id="CorelCorpID_0Corel-Layer"/>
  <path class="fil0" d="M189 652c0,68 52,93 120,93 66,0 126,-17 168,-42 16,-10 29,-21 38,-34 3,-14 4,-28 4,-47 0,-32 -9,-71 -16,-98 -4,-17 -8,-35 -14,-53l50 -48c10,37 15,70 29,103 25,65 154,67 187,-18 8,-26 18,-63 51,-63 3,0 8,-1 11,1l-37 128c21,6 44,13 70,13 40,0 62,-13 76,-42 -1,-41 -9,-76 -14,-115l53 -50c12,106 25,190 142,190l38 0 0 82 -34 0c-70,0 -117,-26 -145,-72 -20,47 -52,81 -114,81 -50,0 -80,-14 -121,-31 -47,29 -114,33 -163,5 -11,119 -107,172 -225,187 -105,15 -195,-14 -195,-134 0,-88 34,-157 59,-223 11,5 17,12 17,27 0,22 -10,48 -17,69 -8,25 -18,61 -18,91z"/>
 </g>
</svg>
