<?xml version="1.0" encoding="UTF-8"?>
<!DOCTYPE svg PUBLIC "-//W3C//DTD SVG 1.0//EN" "http://www.w3.org/TR/2001/REC-SVG-20010904/DTD/svg10.dtd">
<!-- Creator: CorelDRAW -->
<svg xmlns="http://www.w3.org/2000/svg" xml:space="preserve" width="1300px" height="1300px" version="1.0" style="shape-rendering:geometricPrecision; text-rendering:geometricPrecision; image-rendering:optimizeQuality; fill-rule:evenodd; clip-rule:evenodd"
viewBox="0 0 1300 1056"
 xmlns:xlink="http://www.w3.org/1999/xlink">
 <defs>
  <style type="text/css">
   <![CDATA[
    .fil0 {fill:#CC9933;fill-opacity:0.501961}
   ]]>
  </style>
 </defs>
 <g id="_100:master">
  <metadata id="CorelCorpID_0Corel-Layer"/>
  <path class="fil0" d="M186 651c0,70 52,94 121,94 66,0 127,-18 171,-43 16,-9 28,-21 38,-34 3,-14 4,-28 4,-45 0,-57 -16,-111 -31,-156l52 -48c9,37 14,71 28,104 29,67 156,67 184,-18 8,-25 19,-63 52,-63l12 0 -36 125c23,9 52,16 80,16 33,0 53,-13 62,-38 -5,-58 -19,-102 -43,-144l55 -54c23,42 43,101 43,162 0,63 -23,112 -62,138 -52,32 -141,4 -186,-18 -46,29 -112,32 -161,4 -9,121 -110,176 -227,190 -106,15 -198,-13 -198,-135 0,-90 34,-160 60,-227 11,5 17,14 17,28 0,22 -11,48 -17,70 -8,26 -18,61 -18,92z"/>
 </g>
</svg>
