<?xml version="1.0" encoding="UTF-8"?>
<!DOCTYPE svg PUBLIC "-//W3C//DTD SVG 1.0//EN" "http://www.w3.org/TR/2001/REC-SVG-20010904/DTD/svg10.dtd">
<!-- Creator: CorelDRAW -->
<svg xmlns="http://www.w3.org/2000/svg" xml:space="preserve" width="1300px" height="1300px" version="1.0" style="shape-rendering:geometricPrecision; text-rendering:geometricPrecision; image-rendering:optimizeQuality; fill-rule:evenodd; clip-rule:evenodd"
viewBox="0 0 1300 1056"
 xmlns:xlink="http://www.w3.org/1999/xlink">
 <defs>
  <style type="text/css">
   <![CDATA[
    .fil0 {fill:#FFFF66;fill-opacity:0.501961}
   ]]>
  </style>
 </defs>
 <g id="_100:master">
  <metadata id="CorelCorpID_0Corel-Layer"/>
  <g id="_784795776">
   <g>
    <path class="fil0" d="M632 626c-43,-30 -77,-78 -77,-143 0,-63 35,-112 72,-148l28 26c-36,35 -54,69 -54,101 0,17 5,33 13,48 8,14 23,30 43,47l-25 69zm-137 25c-45,-33 -79,-87 -79,-155 0,-75 42,-133 86,-177l29 31c-23,22 -40,43 -51,64 -11,21 -16,41 -16,63 0,49 23,74 56,104l-25 70z"/>
   </g>
  </g>
 </g>
</svg>
