<?xml version="1.0" encoding="UTF-8"?>
<!DOCTYPE svg PUBLIC "-//W3C//DTD SVG 1.0//EN" "http://www.w3.org/TR/2001/REC-SVG-20010904/DTD/svg10.dtd">
<!-- Creator: CorelDRAW -->
<svg xmlns="http://www.w3.org/2000/svg" xml:space="preserve" width="1300px" height="1300px" version="1.0" style="shape-rendering:geometricPrecision; text-rendering:geometricPrecision; image-rendering:optimizeQuality; fill-rule:evenodd; clip-rule:evenodd"
viewBox="0 0 1300 1056"
 xmlns:xlink="http://www.w3.org/1999/xlink">
 <defs>
  <style type="text/css">
   <![CDATA[
    .fil0 {fill:#FFFF66;fill-opacity:0.501961}
   ]]>
  </style>
 </defs>
 <g id="_100:master">
  <metadata id="CorelCorpID_0Corel-Layer"/>
  <g id="_784797856">
   <g>
    <path class="fil0" d="M732 350c42,31 76,79 76,143 0,64 -34,112 -71,149l-28 -27c35,-36 53,-69 53,-102 0,-46 -25,-68 -56,-94l26 -69zm136 -24c45,33 78,85 78,154 0,76 -42,134 -84,177l-30 -31c35,-34 68,-70 68,-126 0,-49 -24,-74 -57,-104l25 -70z"/>
   </g>
  </g>
 </g>
</svg>
