<?xml version="1.0" encoding="UTF-8"?>
<!DOCTYPE svg PUBLIC "-//W3C//DTD SVG 1.0//EN" "http://www.w3.org/TR/2001/REC-SVG-20010904/DTD/svg10.dtd">
<!-- Creator: CorelDRAW -->
<svg xmlns="http://www.w3.org/2000/svg" xml:space="preserve" width="1300px" height="1300px" version="1.0" style="shape-rendering:geometricPrecision; text-rendering:geometricPrecision; image-rendering:optimizeQuality; fill-rule:evenodd; clip-rule:evenodd"
viewBox="0 0 1300 1056"
 xmlns:xlink="http://www.w3.org/1999/xlink">
 <defs>
  <style type="text/css">
   <![CDATA[
    .fil0 {fill:#FFFF66;fill-opacity:0.501961}
   ]]>
  </style>
 </defs>
 <g id="_100:master">
  <metadata id="CorelCorpID_0Corel-Layer"/>
  <g id="_784360528">
   <g>
    <path class="fil0" d="M695 516c23,19 52,43 79,56l-50 79c-25,-20 -50,-36 -81,-49l52 -86zm73 -151c0,11 -11,28 -17,36 -6,9 -19,26 -30,26 -2,0 -6,-2 -14,-7 -27,-17 -56,-51 -56,-96 0,-33 12,-61 25,-84 16,-29 35,-58 55,-81l30 25c-18,19 -36,47 -48,73 -4,9 -6,17 -6,25 0,35 33,56 52,71 7,5 9,9 9,12l0 0z"/>
   </g>
  </g>
 </g>
</svg>
