<?xml version="1.0" encoding="UTF-8"?>
<!DOCTYPE svg PUBLIC "-//W3C//DTD SVG 1.0//EN" "http://www.w3.org/TR/2001/REC-SVG-20010904/DTD/svg10.dtd">
<!-- Creator: CorelDRAW -->
<svg xmlns="http://www.w3.org/2000/svg" xml:space="preserve" width="1300px" height="1300px" version="1.0" style="shape-rendering:geometricPrecision; text-rendering:geometricPrecision; image-rendering:optimizeQuality; fill-rule:evenodd; clip-rule:evenodd"
viewBox="0 0 1300 1056"
 xmlns:xlink="http://www.w3.org/1999/xlink">
 <defs>
  <style type="text/css">
   <![CDATA[
    .fil0 {fill:#FF9966;fill-opacity:0.501961}
   ]]>
  </style>
 </defs>
 <g id="_100:master">
  <metadata id="CorelCorpID_0Corel-Layer"/>
  <path class="fil0" d="M777 569c23,7 51,16 80,16 33,0 54,-15 64,-39 -6,-59 -21,-102 -44,-144l56 -55c23,43 42,100 42,163 0,63 -24,112 -63,137 -48,31 -130,7 -174,-13 -19,15 -52,28 -84,28 -60,0 -94,-15 -142,-29 -28,14 -61,17 -99,17l-64 0 0 0c-20,0 -40,-20 -40,-41 0,-21 20,-40 40,-40l0 0 1 0 66 0c58,0 94,-13 117,-47 16,-24 35,-57 52,-81 12,-17 23,-21 45,-14l-64 140c37,11 49,18 84,18 50,0 78,-14 91,-50l19 -60c6,-18 17,-34 41,-34 3,0 6,-1 10,0l-34 128z"/>
 </g>
</svg>
