<?xml version="1.0" encoding="UTF-8"?>
<!DOCTYPE svg PUBLIC "-//W3C//DTD SVG 1.0//EN" "http://www.w3.org/TR/2001/REC-SVG-20010904/DTD/svg10.dtd">
<!-- Creator: CorelDRAW -->
<svg xmlns="http://www.w3.org/2000/svg" xml:space="preserve" width="1300px" height="1300px" version="1.0" style="shape-rendering:geometricPrecision; text-rendering:geometricPrecision; image-rendering:optimizeQuality; fill-rule:evenodd; clip-rule:evenodd"
viewBox="0 0 1300 1056"
 xmlns:xlink="http://www.w3.org/1999/xlink">
 <defs>
  <style type="text/css">
   <![CDATA[
    .fil0 {fill:#FFFF66;fill-opacity:0.501961}
   ]]>
  </style>
 </defs>
 <g id="_100:master">
  <metadata id="CorelCorpID_0Corel-Layer"/>
  <g id="_784358448">
   <g>
    <path class="fil0" d="M773 581c0,12 -12,28 -19,38 -6,9 -18,27 -31,27 -2,0 -6,-2 -14,-7 -29,-17 -60,-54 -60,-101 0,-33 13,-64 27,-89 16,-30 37,-60 57,-85l32 26c-18,22 -38,50 -50,77 -5,10 -7,18 -7,27 0,26 19,43 33,56 8,7 15,13 22,18 7,5 10,10 10,13l0 0z"/>
   </g>
  </g>
 </g>
</svg>
