<?xml version="1.0" encoding="UTF-8"?>
<!DOCTYPE svg PUBLIC "-//W3C//DTD SVG 1.0//EN" "http://www.w3.org/TR/2001/REC-SVG-20010904/DTD/svg10.dtd">
<!-- Creator: CorelDRAW -->
<svg xmlns="http://www.w3.org/2000/svg" xml:space="preserve" width="1300px" height="1300px" version="1.0" style="shape-rendering:geometricPrecision; text-rendering:geometricPrecision; image-rendering:optimizeQuality; fill-rule:evenodd; clip-rule:evenodd"
viewBox="0 0 1300 1056"
 xmlns:xlink="http://www.w3.org/1999/xlink">
 <defs>
  <style type="text/css">
   <![CDATA[
    .fil0 {fill:#FF6699;fill-opacity:0.501961}
   ]]>
  </style>
 </defs>
 <g id="_100:master">
  <metadata id="CorelCorpID_0Corel-Layer"/>
  <path class="fil0" d="M737 635c-19,15 -52,28 -84,28 -61,0 -94,-15 -143,-30 -28,14 -59,17 -98,17l-61 0 0 0 0 0c-20,0 -41,-20 -40,-41 0,-21 20,-40 40,-40l0 0 0 0 63 0c59,0 95,-13 119,-48 15,-23 37,-61 52,-81 9,-11 18,-18 29,-18 3,0 9,2 16,5l-65 140c33,10 44,17 85,17 51,0 76,-13 90,-50 11,-32 17,-94 60,-94l10 0 -34 132c21,7 43,15 70,15 41,0 64,-14 78,-43 -1,-41 -9,-78 -14,-117l55 -51c9,78 15,151 74,179 30,14 54,14 91,14l-1 81 -16 0c-71,0 -120,-24 -148,-72 -20,50 -53,84 -116,84 -46,0 -75,-13 -112,-27z"/>
 </g>
</svg>
