<?xml version="1.0" encoding="UTF-8"?>
<!DOCTYPE svg PUBLIC "-//W3C//DTD SVG 1.0//EN" "http://www.w3.org/TR/2001/REC-SVG-20010904/DTD/svg10.dtd">
<!-- Creator: CorelDRAW -->
<svg xmlns="http://www.w3.org/2000/svg" xml:space="preserve" width="1300px" height="1300px" version="1.0" style="shape-rendering:geometricPrecision; text-rendering:geometricPrecision; image-rendering:optimizeQuality; fill-rule:evenodd; clip-rule:evenodd"
viewBox="0 0 1300 1056"
 xmlns:xlink="http://www.w3.org/1999/xlink">
 <defs>
  <style type="text/css">
   <![CDATA[
    .fil0 {fill:#FF9966;fill-opacity:0.501961}
   ]]>
  </style>
 </defs>
 <g id="_100:master">
  <metadata id="CorelCorpID_0Corel-Layer"/>
  <path class="fil0" d="M550 569c63,-52 158,-149 254,-149 67,0 101,42 124,101 -51,36 -105,48 -193,48l-185 0zm545 81l-672 0 -17 -81 71 0 11 -8c40,-34 56,-78 61,-145 7,-72 2,-185 -1,-232 -1,-43 -11,-75 -32,-101l53 -79 74 83 -37 64c-2,42 -1,105 -1,147 0,53 2,125 -11,173l0 0c80,-68 163,-134 234,-134 87,0 161,76 161,162 0,42 -22,72 -46,93 49,-13 98,-23 144,-23l8 0 0 81z"/>
 </g>
</svg>
