<?xml version="1.0" encoding="UTF-8"?>
<!DOCTYPE svg PUBLIC "-//W3C//DTD SVG 1.0//EN" "http://www.w3.org/TR/2001/REC-SVG-20010904/DTD/svg10.dtd">
<!-- Creator: CorelDRAW -->
<svg xmlns="http://www.w3.org/2000/svg" xml:space="preserve" width="1300px" height="1300px" version="1.0" style="shape-rendering:geometricPrecision; text-rendering:geometricPrecision; image-rendering:optimizeQuality; fill-rule:evenodd; clip-rule:evenodd"
viewBox="0 0 1300 1056"
 xmlns:xlink="http://www.w3.org/1999/xlink">
 <defs>
  <style type="text/css">
   <![CDATA[
    .fil0 {fill:#FFFF66;fill-opacity:0.501961}
   ]]>
  </style>
 </defs>
 <g id="_100:master">
  <metadata id="CorelCorpID_0Corel-Layer"/>
  <path class="fil0" d="M808 650c-59,0 -86,-45 -86,-104 0,-72 32,-138 73,-172 14,-13 30,-19 48,-19 53,0 81,40 100,76 20,42 31,90 32,138l82 0 -1 81 -89 0c-10,43 -28,82 -56,113 -31,35 -79,64 -137,64 -35,0 -73,-16 -103,-27 -37,-13 -79,-32 -113,-45 7,-13 12,-23 29,-23 29,0 84,31 146,31 75,0 128,-34 160,-76 9,-13 17,-25 22,-37l-107 0zm-43 -129c0,28 15,48 44,48l108 0c0,-55 -26,-105 -62,-125 -9,-5 -19,-7 -30,-7 -38,0 -60,47 -60,84l0 0z"/>
 </g>
</svg>
