<?xml version="1.0" encoding="UTF-8"?>
<!DOCTYPE svg PUBLIC "-//W3C//DTD SVG 1.0//EN" "http://www.w3.org/TR/2001/REC-SVG-20010904/DTD/svg10.dtd">
<!-- Creator: CorelDRAW -->
<svg xmlns="http://www.w3.org/2000/svg" xml:space="preserve" width="1300px" height="1300px" version="1.0" style="shape-rendering:geometricPrecision; text-rendering:geometricPrecision; image-rendering:optimizeQuality; fill-rule:evenodd; clip-rule:evenodd"
viewBox="0 0 1300 1056"
 xmlns:xlink="http://www.w3.org/1999/xlink">
 <defs>
  <style type="text/css">
   <![CDATA[
    .fil0 {fill:#FFFF66;fill-opacity:0.501961}
   ]]>
  </style>
 </defs>
 <g id="_100:master">
  <metadata id="CorelCorpID_0Corel-Layer"/>
  <path class="fil0" d="M903 317c29,0 43,23 43,52 0,20 -4,34 -9,50 -13,-11 -25,-17 -48,-17 -42,0 -78,25 -102,46 -21,20 -50,51 -50,85 0,34 50,36 89,36l57 0c51,0 92,2 92,53 0,33 -8,61 -27,84 -40,51 -121,89 -195,110 -36,10 -75,19 -117,19 -115,0 -177,-57 -177,-170 0,-76 23,-138 45,-195 9,-21 16,-42 24,-62 11,5 14,12 14,27 0,49 -37,111 -37,185 0,90 59,129 150,129 89,0 167,-35 227,-66 10,-5 45,-24 45,-31 0,-6 -26,-5 -36,-5 -31,0 -63,3 -92,3 -62,0 -111,-19 -111,-81 0,-39 15,-77 31,-107 29,-54 74,-108 130,-133 19,-9 34,-12 54,-12z"/>
 </g>
</svg>
