<?xml version="1.0" encoding="UTF-8"?>
<!DOCTYPE svg PUBLIC "-//W3C//DTD SVG 1.0//EN" "http://www.w3.org/TR/2001/REC-SVG-20010904/DTD/svg10.dtd">
<!-- Creator: CorelDRAW -->
<svg xmlns="http://www.w3.org/2000/svg" xml:space="preserve" width="1300px" height="1300px" version="1.0" style="shape-rendering:geometricPrecision; text-rendering:geometricPrecision; image-rendering:optimizeQuality; fill-rule:evenodd; clip-rule:evenodd"
viewBox="0 0 1300 1056"
 xmlns:xlink="http://www.w3.org/1999/xlink">
 <defs>
  <style type="text/css">
   <![CDATA[
    .fil0 {fill:#FFFF66;fill-opacity:0.501961}
   ]]>
  </style>
 </defs>
 <g id="_100:master">
  <metadata id="CorelCorpID_0Corel-Layer"/>
  <path class="fil0" d="M432 630c0,84 61,112 146,112 79,0 156,-19 217,-43 -47,-37 -116,-47 -190,-56l35 -74 286 0 0 81 -121 0c20,8 56,23 56,50 0,13 -6,24 -16,35 -35,39 -106,62 -168,74 -41,10 -88,17 -133,17 -100,0 -160,-48 -160,-149 0,-85 32,-155 60,-215 10,-23 21,-44 31,-64 8,5 13,11 13,24 0,11 -3,24 -9,39 -19,48 -47,103 -47,169z"/>
 </g>
</svg>
